<svg xmlns="http://www.w3.org/2000/svg" width="312" height="66" viewBox="0 0 312 66" fill="none"><mask id="mask0_11_112" style="mask-type:luminance" maskUnits="userSpaceOnUse" x="71" y="19" width="17" height="26"><path d="M82.0897 20.1898C83.5597 19.5698 85.2497 19.2598 87.1597 19.2598V25.9298C86.3597 25.8698 85.8197 25.8398 85.5397 25.8398C83.4697 25.8398 81.8497 26.4198 80.6697 27.5798C79.4997 28.7398 78.9097 30.4798 78.9097 32.7898V44.5598H71.6797V19.6298H78.5797V22.9198C79.4397 21.7098 80.6097 20.7998 82.0797 20.1898" fill="white"></path></mask><g mask="url(#mask0_11_112)"><mask id="mask1_11_112" style="mask-type:luminance" maskUnits="userSpaceOnUse" x="-353" y="-718" width="1000" height="1001"><path d="M647 -717.28H-353V282.72H647V-717.28Z" fill="white"></path></mask><g mask="url(#mask1_11_112)"><path d="M88.1604 18.2598H70.6904V45.5598H88.1604V18.2598Z" fill="white"></path></g></g><mask id="mask2_11_112" style="mask-type:luminance" maskUnits="userSpaceOnUse" x="167" y="10" width="20" height="35"><path d="M186.29 43.3399C185.57 43.8699 184.69 44.2699 183.65 44.5299C182.61 44.7899 181.51 44.9299 180.36 44.9299C177.37 44.9299 175.06 44.1699 173.43 42.6399C171.8 41.1199 170.98 38.8799 170.98 35.9199V25.2299H167.11V19.6299H170.98V10.1699H178.26V19.6299H184.51V25.2299H178.26V35.8299C178.26 36.8899 178.53 37.7099 179.08 38.2799C179.62 38.8599 180.39 39.1399 181.39 39.1399C182.54 39.1399 183.52 38.8299 184.33 38.2099L186.29 43.3399Z" fill="white"></path></mask><g mask="url(#mask2_11_112)"><mask id="mask3_11_112" style="mask-type:luminance" maskUnits="userSpaceOnUse" x="-353" y="-718" width="1000" height="1001"><path d="M647 -717.28H-353V282.72H647V-717.28Z" fill="white"></path></mask><g mask="url(#mask3_11_112)"><path d="M187.29 9.16992H166.11V45.9299H187.29V9.16992Z" fill="white"></path></g></g><mask id="mask4_11_112" style="mask-type:luminance" maskUnits="userSpaceOnUse" x="190" y="10" width="26" height="35"><path d="M212.93 22.0402C214.83 23.8902 215.78 26.6402 215.78 30.2902V44.5602H208.55V31.4001C208.55 29.4201 208.12 27.9502 207.25 26.9802C206.39 26.0102 205.14 25.5201 203.5 25.5201C201.68 25.5201 200.23 26.0801 199.14 27.2101C198.06 28.3401 197.52 30.0102 197.52 32.2402V44.5602H190.29V10.1802H197.52V22.2302C198.48 21.2702 199.63 20.5402 200.99 20.0302C202.35 19.5202 203.83 19.2701 205.44 19.2701C208.53 19.2701 211.02 20.2002 212.92 22.0502" fill="white"></path></mask><g mask="url(#mask4_11_112)"><mask id="mask5_11_112" style="mask-type:luminance" maskUnits="userSpaceOnUse" x="-353" y="-718" width="1000" height="1001"><path d="M647 -717.28H-353V282.72H647V-717.28Z" fill="white"></path></mask><g mask="url(#mask5_11_112)"><path d="M216.78 9.18018H189.3V45.5602H216.78V9.18018Z" fill="white"></path></g></g><mask id="mask6_11_112" style="mask-type:luminance" maskUnits="userSpaceOnUse" x="220" y="19" width="27" height="26"><path d="M246.87 34.1398H228.01C228.35 35.6798 229.15 36.8998 230.42 37.7998C231.69 38.6998 233.261 39.1398 235.141 39.1398C236.441 39.1398 237.591 38.9498 238.591 38.5598C239.591 38.1798 240.531 37.5598 241.391 36.7298L245.24 40.8998C242.89 43.5898 239.461 44.9298 234.951 44.9298C232.141 44.9298 229.65 44.3798 227.49 43.2798C225.33 42.1798 223.66 40.6598 222.49 38.7198C221.31 36.7698 220.73 34.5698 220.73 32.0898C220.73 29.6098 221.31 27.4498 222.47 25.4898C223.63 23.5298 225.22 21.9998 227.24 20.8998C229.26 19.7998 231.531 19.2598 234.031 19.2598C236.531 19.2598 238.681 19.7898 240.651 20.8298C242.631 21.8798 244.18 23.3898 245.31 25.3498C246.44 27.3098 247 29.5898 247 32.1798C247 32.2698 246.95 32.9198 246.86 34.1298M229.951 26.1098C228.841 27.0398 228.16 28.2998 227.91 29.9098H240.19C239.94 28.3298 239.261 27.0798 238.151 26.1298C237.041 25.1898 235.68 24.7198 234.07 24.7198C232.46 24.7198 231.061 25.1798 229.951 26.1098Z" fill="white"></path></mask><g mask="url(#mask6_11_112)"><mask id="mask7_11_112" style="mask-type:luminance" maskUnits="userSpaceOnUse" x="-353" y="-718" width="1000" height="1001"><path d="M647 -717.28H-353V282.72H647V-717.28Z" fill="white"></path></mask><g mask="url(#mask7_11_112)"><path d="M248.01 18.2598H219.74V45.9298H248.01V18.2598Z" fill="white"></path></g></g><mask id="mask8_11_112" style="mask-type:luminance" maskUnits="userSpaceOnUse" x="251" y="19" width="17" height="26"><path d="M262.23 20.1898C263.7 19.5698 265.39 19.2598 267.3 19.2598V25.9298C266.5 25.8698 265.96 25.8398 265.68 25.8398C263.61 25.8398 261.99 26.4198 260.82 27.5798C259.65 28.7398 259.06 30.4798 259.06 32.7898V44.5598H251.83V19.6298H258.73V22.9198C259.59 21.7098 260.76 20.7998 262.23 20.1898Z" fill="white"></path></mask><g mask="url(#mask8_11_112)"><mask id="mask9_11_112" style="mask-type:luminance" maskUnits="userSpaceOnUse" x="-353" y="-718" width="1000" height="1001"><path d="M647 -717.28H-353V282.72H647V-717.28Z" fill="white"></path></mask><g mask="url(#mask9_11_112)"><path d="M268.3 18.2598H250.83V45.5598H268.3V18.2598Z" fill="white"></path></g></g><mask id="mask10_11_112" style="mask-type:luminance" maskUnits="userSpaceOnUse" x="270" y="19" width="24" height="26"><path d="M275.26 44.1698C273.28 43.6598 271.71 43.0198 270.53 42.2498L272.94 37.0598C274.05 37.7698 275.4 38.3498 276.97 38.7998C278.55 39.2498 280.09 39.4698 281.6 39.4698C284.66 39.4698 286.19 38.7098 286.19 37.1998C286.19 36.4898 285.77 35.9798 284.94 35.6698C284.11 35.3598 282.82 35.0998 281.09 34.8798C279.05 34.5698 277.37 34.2198 276.04 33.8098C274.71 33.4098 273.56 32.6998 272.59 31.6798C271.62 30.6598 271.13 29.2098 271.13 27.3198C271.13 25.7498 271.59 24.3498 272.5 23.1298C273.41 21.9098 274.74 20.9598 276.49 20.2798C278.23 19.5998 280.29 19.2598 282.67 19.2598C284.43 19.2598 286.18 19.4498 287.93 19.8398C289.67 20.2298 291.12 20.7598 292.26 21.4398L289.85 26.5798C287.66 25.3398 285.26 24.7298 282.67 24.7298C281.13 24.7298 279.97 24.9498 279.19 25.3798C278.42 25.8098 278.03 26.3698 278.03 27.0498C278.03 27.8198 278.45 28.3598 279.28 28.6698C280.11 28.9798 281.44 29.2698 283.26 29.5498C285.3 29.8898 286.97 30.2498 288.26 30.6398C289.56 31.0298 290.68 31.7298 291.64 32.7498C292.6 33.7698 293.08 35.1898 293.08 37.0098C293.08 38.5498 292.62 39.9298 291.69 41.1298C290.76 42.3398 289.41 43.2698 287.64 43.9298C285.86 44.5898 283.76 44.9298 281.31 44.9298C279.24 44.9298 277.22 44.6798 275.24 44.1698" fill="white"></path></mask><g mask="url(#mask10_11_112)"><mask id="mask11_11_112" style="mask-type:luminance" maskUnits="userSpaceOnUse" x="-353" y="-718" width="1000" height="1001"><path d="M647 -717.28H-353V282.72H647V-717.28Z" fill="white"></path></mask><g mask="url(#mask11_11_112)"><path d="M294.09 18.2598H269.53V45.9298H294.09V18.2598Z" fill="white"></path></g></g><mask id="mask12_11_112" style="mask-type:luminance" maskUnits="userSpaceOnUse" x="90" y="19" width="28" height="26"><path d="M96.7301 43.29C94.6501 42.19 93.0201 40.67 91.8401 38.73C90.6701 36.78 90.0801 34.58 90.0801 32.1C90.0801 29.62 90.6701 27.42 91.8401 25.48C93.0101 23.53 94.6401 22.01 96.7301 20.92C98.8201 19.82 101.17 19.27 103.8 19.27C106.43 19.27 108.77 19.82 110.84 20.92C112.91 22.02 114.53 23.54 115.71 25.48C116.88 27.42 117.47 29.63 117.47 32.1C117.47 34.57 116.88 36.78 115.71 38.73C114.54 40.68 112.91 42.2 110.84 43.29C108.77 44.39 106.42 44.9301 103.8 44.9301C101.18 44.9301 98.8201 44.38 96.7301 43.29ZM108.36 37.13C109.55 35.88 110.14 34.2 110.14 32.1C110.14 30 109.54 28.32 108.36 27.07C107.17 25.82 105.65 25.19 103.8 25.19C101.95 25.19 100.42 25.82 99.2101 27.07C98.0101 28.32 97.4001 30 97.4001 32.1C97.4001 34.2 98.0001 35.88 99.2101 37.13C100.42 38.38 101.94 39.01 103.8 39.01C105.66 39.01 107.17 38.38 108.36 37.13Z" fill="white"></path></mask><g mask="url(#mask12_11_112)"><mask id="mask13_11_112" style="mask-type:luminance" maskUnits="userSpaceOnUse" x="-353" y="-718" width="1000" height="1001"><path d="M647 -717.28H-353V282.72H647V-717.28Z" fill="white"></path></mask><g mask="url(#mask13_11_112)"><path d="M118.46 18.2603H89.0801V45.9303H118.46V18.2603Z" fill="white"></path></g></g><mask id="mask14_11_112" style="mask-type:luminance" maskUnits="userSpaceOnUse" x="36" y="19" width="30" height="38"><path d="M59.0403 19.6102V22.8102C58.8903 22.6202 58.7303 22.4602 58.5703 22.2902C56.7103 20.2702 54.1203 19.2402 50.7903 19.2402C50.6403 19.2402 50.5002 19.2602 50.3602 19.2602C50.1702 19.2602 49.9802 19.2402 49.7802 19.2402C47.3402 19.2402 45.1102 19.7802 43.0902 20.8502C41.0702 21.9202 39.4602 23.4302 38.2702 25.3702C37.0802 27.3102 36.4902 29.5502 36.4902 32.0902C36.4902 34.6302 37.0802 36.8602 38.2702 38.8102C39.4502 40.7502 41.0602 42.2602 43.0902 43.3302C45.1102 44.4002 47.3402 44.9302 49.7802 44.9402C54.6802 44.9502 57.0303 42.9302 59.0403 40.7302V41.8702C59.0403 44.3002 57.6102 48.5202 53.7202 49.6102C52.7602 49.8902 51.6502 50.0302 50.3702 50.0302C48.6602 50.0302 46.9503 49.7602 45.2303 49.2102C43.5203 48.6702 42.1003 47.9302 40.9803 47.0102L37.9203 52.5402C39.4303 53.7302 41.3402 54.6302 43.6502 55.2602C45.9502 55.8802 48.3902 56.2002 50.9602 56.2002C55.8302 56.2002 59.5403 55.0202 62.0703 52.6402C64.6103 50.2702 65.8702 46.6502 65.8702 41.7702V40.8402C65.8702 40.6802 65.8903 40.5402 65.8903 40.3802V19.6202H59.0302L59.0403 19.6102ZM51.3102 25.5602C53.3502 25.5602 55.0203 26.1602 56.3203 27.3602C57.6203 28.5602 58.2702 30.1302 58.2702 32.0802C58.2702 33.0402 58.1103 33.9002 57.7903 34.6802C57.4603 35.4802 56.9803 36.1902 56.3203 36.8002C55.0203 38.0002 53.3502 38.6002 51.3102 38.6002C49.2702 38.6002 47.5902 38.0002 46.2702 36.8002C44.9502 35.6002 44.2903 34.0302 44.2903 32.0802C44.2903 30.1302 44.9502 28.5702 46.2702 27.3602C47.0402 26.6602 47.9402 26.1902 48.9602 25.9002C49.6902 25.6902 50.4602 25.5602 51.3102 25.5602Z" fill="white"></path></mask><g mask="url(#mask14_11_112)"><mask id="mask15_11_112" style="mask-type:luminance" maskUnits="userSpaceOnUse" x="-353" y="-718" width="1000" height="1001"><path d="M647 -717.28H-353V282.72H647V-717.28Z" fill="white"></path></mask><g mask="url(#mask15_11_112)"><path d="M66.9 18.2402H35.5V57.1802H66.9V18.2402Z" fill="white"></path></g></g><mask id="mask16_11_112" style="mask-type:luminance" maskUnits="userSpaceOnUse" x="146" y="10" width="19" height="35"><path d="M158.99 10.1699H157.39L149.23 35.1399L146.08 44.7899H147.7H149.23H152.97L164.26 10.1699H158.99Z" fill="white"></path></mask><g mask="url(#mask16_11_112)"><mask id="mask17_11_112" style="mask-type:luminance" maskUnits="userSpaceOnUse" x="-353" y="-718" width="1000" height="1001"><path d="M647 -717.28H-353V282.72H647V-717.28Z" fill="white"></path></mask><g mask="url(#mask17_11_112)"><path d="M165.26 9.16992H145.08V45.7899H165.26V9.16992Z" fill="white"></path></g></g><mask id="mask18_11_112" style="mask-type:luminance" maskUnits="userSpaceOnUse" x="119" y="19" width="28" height="26"><path d="M142.7 37.6199L146.14 27.0799L144.57 22.2799C144.57 22.2799 144.58 22.2799 144.59 22.2699L143.73 19.6299H136.83L132.67 32.3599L131.55 35.7999L131.34 35.1399L126.27 19.6299H119.37L122.81 30.1699L125.24 37.6199V37.5799L127.6 44.7899H131.34H131.54H135.5L140.27 30.1699L141.13 32.8099L142.7 37.6099V37.6199Z" fill="white"></path></mask><g mask="url(#mask18_11_112)"><mask id="mask19_11_112" style="mask-type:luminance" maskUnits="userSpaceOnUse" x="-353" y="-718" width="1000" height="1001"><path d="M647 -717.28H-353V282.72H647V-717.28Z" fill="white"></path></mask><g mask="url(#mask19_11_112)"><path d="M147.14 18.6299H118.37V45.7899H147.14V18.6299Z" fill="white"></path></g></g><path fill-rule="evenodd" clip-rule="evenodd" d="M31.34 0.719727H28.08H24.47H21.21L13.05 25.6997L0 65.6397H6.89001H10.15L31.34 0.719727Z" fill="#FF2854"></path><mask id="mask20_11_112" style="mask-type:luminance" maskUnits="userSpaceOnUse" x="0" y="0" width="32" height="66"><path d="M31.34 0.719727H28.08H24.47H21.21L13.05 25.6997L0 65.6397H6.89001H10.15L31.34 0.719727Z" fill="white"></path></mask><g mask="url(#mask20_11_112)"><path d="M647 -717.28H-353V282.72H647V-717.28Z" fill="#FF2854"></path><mask id="mask21_11_112" style="mask-type:luminance" maskUnits="userSpaceOnUse" x="-353" y="-718" width="1000" height="1001"><path d="M647 -717.28H-353V282.72H647V-717.28Z" fill="white"></path></mask><g mask="url(#mask21_11_112)"><path d="M32.34 -0.280273H-1V66.6397H32.34V-0.280273Z" fill="#FF2854"></path></g></g><path d="M303.99 14.5C299.99 14.5 296.74 11.25 296.74 7.25C296.74 3.25 299.99 0 303.99 0C307.99 0 311.24 3.25 311.24 7.25C311.24 11.25 307.99 14.5 303.99 14.5ZM303.99 1.48999C300.82 1.48999 298.24 4.06999 298.24 7.23999C298.24 10.41 300.82 12.99 303.99 12.99C307.16 12.99 309.74 10.41 309.74 7.23999C309.74 4.06999 307.16 1.48999 303.99 1.48999Z" fill="white"></path><path d="M304.3 3.52979C304.85 3.52979 305.32 3.60979 305.72 3.77979C306.12 3.93979 306.42 4.18982 306.63 4.49982C306.84 4.80982 306.95 5.20981 306.95 5.67981C306.95 6.06981 306.89 6.39981 306.76 6.67981C306.63 6.94981 306.45 7.1798 306.22 7.3598C305.99 7.5398 305.72 7.67979 305.4 7.78979L304.91 8.06976H302.63V6.82977H304.3C304.55 6.82977 304.75 6.78978 304.92 6.70978C305.09 6.62978 305.21 6.5098 305.29 6.3598C305.37 6.2098 305.41 6.02976 305.41 5.81976C305.41 5.49976 305.32 5.24981 305.14 5.05981C304.96 4.86981 304.68 4.77979 304.3 4.77979H303.16V10.6498H301.63V3.53979H304.31L304.3 3.52979ZM303.96 7.4798H305.58L307.21 10.5698V10.6398H305.56L303.96 7.4798Z" fill="white"></path></svg>